<svg width="15" height="15" xmlns="http://www.w3.org/2000/svg" xmlns:xlink="http://www.w3.org/1999/xlink" overflow="hidden"><defs><clipPath id="clip0"><rect x="0" y="0" width="15" height="15"/></clipPath></defs><g clip-path="url(#clip0)"><path d="M10.615 6.772 8.547 5.57201 6.493 4.388C6.30392 4.27659 6.07808 4.24561 5.866 4.302 5.65529 4.35979 5.47572 4.49806 5.366 4.687 5.32881 4.74967 5.2999 4.8169 5.28 4.887 5.26601 4.93 5.26601 4.987 5.25101 5.04401L5.25101 9.95C5.2525 10.1691 5.33931 10.3789 5.49301 10.535 5.64697 10.6919 5.85822 10.7793 6.07802 10.777 6.24309 10.753 6.40259 10.6999 6.54901 10.62L8.57401 9.451 8.588 9.451 8.60201 9.437 10.702 8.22501C10.8945 8.1132 11.0334 7.92809 11.087 7.71201 11.0994 7.66065 11.1041 7.60774 11.101 7.55501 11.0639 7.23457 10.8857 6.94743 10.615 6.77201ZM10.33 7.61301 8.26201 8.813C8.25107 8.81435 8.24086 8.81927 8.233 8.827L6.20801 9.996C6.17375 10.0188 6.13477 10.0335 6.09401 10.039 6.06349 10.0361 6.03407 10.0261 6.00801 10.01 5.98987 9.98493 5.97975 9.95494 5.979 9.924L5.979 5.061C5.979 5.05328 5.98528 5.047 5.99301 5.047 6.00075 5.03915 6.00568 5.02895 6.00702 5.01801 6.021 5.00401 6.05 4.98901 6.064 4.97501L6.13501 4.97501C6.149 4.98901 6.164 4.98901 6.17801 5.00401L8.203 6.173C8.21056 6.18117 8.22092 6.18617 8.23201 6.187L8.246 6.187 10.314 7.387C10.343 7.401 10.4 7.444 10.4 7.487 10.3962 7.53612 10.3705 7.58091 10.33 7.609Z" fill="#454545"/><path d="M12.807 2.205C9.88899-0.726244 5.14723-0.73697 2.21598 2.18104 2.21299 2.18403 2.20999 2.18701 2.207 2.19 0.796726 3.60086 0.00311312 5.51316 5.96046e-08 7.508 0.000221461 11.6501 3.35827 15.0078 7.5004 15.0076 11.6425 15.0074 15.0002 11.6493 15 7.5072 14.9999 5.52003 14.2112 3.61412 12.807 2.208ZM12.278 12.265C9.65833 14.8955 5.40221 14.9043 2.77168 12.2847 2.7651 12.2781 2.75855 12.2716 2.752 12.265 0.123953 9.65537 0.109025 5.40939 2.71866 2.78134 2.72973 2.77019 2.74085 2.75908 2.752 2.748 5.38885 0.11746 9.65891 0.122572 12.2894 2.75942 13.5472 4.02016 14.2552 5.72718 14.259 7.508 14.2651 9.29581 13.5511 11.0108 12.278 12.266Z" fill="#454545"/></g></svg>