<svg width="16" height="16" xmlns="http://www.w3.org/2000/svg" xmlns:xlink="http://www.w3.org/1999/xlink" overflow="hidden"><defs><clipPath id="clip0"><rect x="0" y="0" width="16" height="16"/></clipPath></defs><g clip-path="url(#clip0)"><path d="M8 0C3.58172 0 0 3.58172 1.77636e-15 8 1.77636e-15 12.4183 3.58172 16 8 16 12.4183 16 16 12.4183 16 8 15.995 3.58378 12.4162 0.00495988 8-1.77636e-15Z" fill="#2B68A0"/><path d="M11.808 8.725 8.725 8.725 8.725 11.808C8.725 12.2087 8.40018 12.5335 7.9995 12.5335 7.59882 12.5335 7.27399 12.2087 7.27399 11.808L7.27399 8.725 4.19099 8.725C3.79031 8.725 3.46549 8.40018 3.46549 7.9995 3.46549 7.59882 3.79031 7.27399 4.19099 7.27399L7.27399 7.27399 7.27399 4.19099C7.27399 3.79031 7.59881 3.46549 7.9995 3.46549 8.40018 3.46549 8.725 3.79031 8.725 4.19099L8.725 7.27399 11.808 7.27399C12.2087 7.27399 12.5335 7.59881 12.5335 7.9995 12.5335 8.40018 12.2087 8.725 11.808 8.725Z" fill="#FFFFFF"/></g></svg>