<svg width="15" height="15" xmlns="http://www.w3.org/2000/svg" xmlns:xlink="http://www.w3.org/1999/xlink" overflow="hidden"><defs><clipPath id="clip0"><rect x="0" y="0" width="15" height="15"/></clipPath></defs><g clip-path="url(#clip0)"><path d="M13.5083 0.594918 0.848546 7.89645C0.530096 8.0692 0.411987 8.4674 0.584742 8.78585 0.656148 8.91748 0.770439 9.02071 0.908628 9.0784L3.8123 10.2968 11.6585 3.38138C11.7262 3.32157 11.8295 3.32794 11.8893 3.3956 11.9426 3.45585 11.9441 3.54588 11.8929 3.60792L5.31338 11.6235 5.31338 13.822C5.30519 14.1836 5.59173 14.4835 5.95338 14.4916 6.15417 14.4962 6.34594 14.4084 6.47367 14.2534L8.20917 12.1426 11.6122 13.5679C11.9468 13.7082 12.3318 13.5507 12.4722 13.2162 12.4911 13.1709 12.505 13.1237 12.5135 13.0754L14.4834 1.27651C14.5464 0.919749 14.3083 0.579426 13.9516 0.516379 13.7992 0.489447 13.6421 0.517265 13.5083 0.594918Z" stroke="#EEEEEE" stroke-width="0.984963" fill="none"/></g></svg>