<svg width="24" height="25" xmlns="http://www.w3.org/2000/svg" xmlns:xlink="http://www.w3.org/1999/xlink" overflow="hidden"><defs><clipPath id="clip0"><rect x="0" y="0" width="24" height="25"/></clipPath></defs><g clip-path="url(#clip0)"><path d="M9.608 18.293 9.60199 18.298 9.83299 19.615 11.15 19.846 11.156 19.84 10.905 18.54Z" fill="#454545"/><path d="M21.272 8.243C16.16 3.131 13.226 5.758 12.752 7.543 12.6299 7.93381 12.5625 8.33968 12.552 8.749 11.784 8.37099 9.822 7.839 8.138 14.02L4.516 18.48C6.06245 21.2045 8.31753 23.4595 11.042 25.006L15.502 21.384C16.949 20.712 19.302 20.445 20.802 18.941 23.884 15.851 25.899 12.866 21.272 8.243ZM14.046 19.213C13.7422 19.5167 13.2498 19.5167 12.946 19.213 12.8763 19.1433 12.8206 19.0608 12.782 18.97L11.831 18.786 12.015 19.737C12.4094 19.9074 12.5911 20.3653 12.4207 20.7597 12.2503 21.1542 11.7924 21.3358 11.3979 21.1654 11.3081 21.1266 11.2263 21.0711 11.157 21.002 11.0908 20.9355 11.0373 20.8576 10.999 20.772L9.999 20.596 10.175 21.596C10.2607 21.6341 10.3387 21.6877 10.405 21.754 10.7089 22.0577 10.709 22.5503 10.4053 22.8542 10.1015 23.1581 9.6089 23.1583 9.305 22.8545 9.0011 22.5508 9.00098 22.0582 9.30474 21.7542 9.30482 21.7542 9.30492 21.7541 9.305 21.754L9.313 21.747 9.082 20.43 7.765 20.199 7.758 20.207C7.45424 20.5109 6.96164 20.511 6.65774 20.2073 6.35384 19.9035 6.35372 19.4109 6.65748 19.107 6.96124 18.8031 7.45383 18.803 7.75774 19.1067 7.75782 19.1068 7.75791 19.1069 7.758 19.107 7.82426 19.1734 7.87782 19.2513 7.91599 19.337L8.921 19.514 8.744 18.509C8.35237 18.3322 8.1782 17.8714 8.35498 17.4798 8.53176 17.0882 8.99255 16.914 9.38417 17.0908 9.56142 17.1708 9.70228 17.3143 9.77899 17.493L10.73 17.677 10.546 16.726C10.1515 16.5558 9.96957 16.098 10.1397 15.7035 10.3099 15.309 10.7677 15.1271 11.1623 15.2972 11.5568 15.4674 11.7387 15.9252 11.5685 16.3197 11.5299 16.4093 11.4747 16.4908 11.406 16.56L11.657 17.86 12.957 18.111C13.2673 17.8138 13.7598 17.8245 14.057 18.1348 14.3451 18.4357 14.3451 18.9101 14.057 19.211Z" fill="#454545"/><path d="M6.09299 15.172 5.763 14.747 4.493 15.108 4.493 15.116 5.283 16.172Z" fill="#454545"/><path d="M3.179 16.443C3.26814 16.4724 3.35117 16.5178 3.424 16.577L4.4 16.277 3.789 15.46C3.35976 15.4794 2.99607 15.1472 2.97667 14.7179 2.95727 14.2887 3.28952 13.925 3.71876 13.9056 3.91313 13.8968 4.10374 13.9612 4.253 14.086L5.184 13.821 4.59 13.056C4.16115 13.0826 3.79191 12.7566 3.76528 12.3277 3.73865 11.8989 4.06471 11.5296 4.49357 11.503 4.92242 11.4764 5.29166 11.8024 5.31829 12.2313 5.32433 12.3286 5.31202 12.4262 5.282 12.519L6.092 13.563 7.362 13.201C7.40031 13.086 7.46504 12.9815 7.551 12.896 7.91046 11.636 8.4036 10.4181 9.022 9.263 8.56003 8.10645 7.24797 7.54337 6.09141 8.00534 6.01581 8.03554 5.9419 8.06981 5.87 8.108 6.94174 7.79822 7.55943 6.67827 7.24965 5.60653 7.1422 5.2348 6.93025 4.90175 6.639 4.647 8.12002 5.75599 9.71183 6.70873 11.389 7.49 11.5045 7.47238 11.6212 7.46335 11.738 7.463 11.788 7.463 11.838 7.463 11.888 7.463 11.916 7.336 11.95 7.196 11.988 7.043 12.4115 5.56977 13.6514 4.47617 15.166 4.24 14.589 2.94 13.209 1.58 10.329 0.64 4.11-1.4 2.358 1.745 1 5.889 0.338 7.911 1.163 10.13 1.217 11.725L0 17.34C1.30214 18.1972 2.71118 18.8797 4.191 19.37L4.338 19.417C4.16467 19.1503 3.99533 18.8733 3.83 18.586L3.558 18.116 4.274 17.234 3.679 17.415C3.679 17.415 3.679 17.422 3.679 17.425 3.54547 17.8334 3.10615 18.0562 2.69775 17.9227 2.28934 17.7892 2.06651 17.3499 2.20004 16.9415 2.33328 16.5339 2.77108 16.311 3.179 16.443Z" fill="#454545"/></g></svg>