<svg width="14" height="14" xmlns="http://www.w3.org/2000/svg" xmlns:xlink="http://www.w3.org/1999/xlink" overflow="hidden"><defs><clipPath id="clip0"><rect x="0" y="0" width="14" height="14"/></clipPath></defs><g clip-path="url(#clip0)"><path d="M14 4.3635 14 2.5765C14.0363 1.86044 13.486 1.25019 12.77 1.2125L12.606 1.2125 12.606 2.8795C12.6284 3.10594 12.463 3.30765 12.2365 3.33005 12.0101 3.35244 11.8084 3.18703 11.786 2.96059 11.7833 2.93363 11.7833 2.90647 11.786 2.8795L11.786 0.4555C11.8084 0.229063 11.643 0.0273457 11.4165 0.00495338 11.1901-0.0174389 10.9884 0.14797 10.966 0.374407 10.9633 0.401371 10.9633 0.428534 10.966 0.4555L10.966 1.2135 8.23 1.2135 8.23 2.8805C8.25239 3.10694 8.08698 3.30865 7.86055 3.33105 7.63411 3.35344 7.43239 3.18803 7.41 2.96159 7.40733 2.93463 7.40733 2.90746 7.41 2.8805L7.41 0.4555C7.43239 0.229063 7.26698 0.0273457 7.04055 0.00495338 6.81411-0.0174389 6.61239 0.14797 6.59 0.374407 6.58733 0.401371 6.58733 0.428534 6.59 0.4555L6.59 1.2135 3.855 1.2135 3.855 2.8805C3.86691 3.11918 3.68363 3.32258 3.445 3.3355 3.20637 3.32258 3.02309 3.11918 3.035 2.8805L3.035 0.4555C3.04691 0.21682 2.86363 0.0134182 2.625 0.000499725 2.38637 0.0134182 2.20309 0.21682 2.215 0.4555L2.215 1.2135 1.23 1.2135C0.514423 1.25119-0.0357181 1.86082 1.90735e-08 2.5765L0 4.3645Z" fill="#77787B"/><path d="M0 5.27251 0 12.6355C-0.0362886 13.3516 0.514013 13.9618 1.23 13.9995L12.77 13.9995C13.486 13.9618 14.0363 13.3516 14 12.6355L14 5.27251ZM3.938 11.5725 3.063 11.5725C2.81199 11.5461 2.62987 11.3213 2.65624 11.0703 2.67878 10.8557 2.84838 10.6861 3.063 10.6635L3.938 10.6635C4.18901 10.6899 4.37113 10.9147 4.34476 11.1658 4.32222 11.3804 4.15262 11.55 3.938 11.5725ZM3.938 9.6335 3.063 9.6335C2.81199 9.60713 2.62987 9.38228 2.65624 9.13126 2.67878 8.91664 2.84838 8.74704 3.063 8.72449L3.938 8.7245C4.18901 8.75087 4.37113 8.97572 4.34476 9.22675 4.32222 9.44136 4.15262 9.61096 3.938 9.63351ZM3.938 7.6945 3.063 7.6945C2.81199 7.66814 2.62987 7.44328 2.65624 7.19226 2.67878 6.97765 2.84838 6.80804 3.063 6.78549L3.938 6.78551C4.18901 6.81187 4.37113 7.03673 4.34476 7.28775 4.32222 7.50237 4.15262 7.67197 3.938 7.69452ZM7.438 11.5735 6.563 11.5735C6.31199 11.5471 6.12987 11.3223 6.15624 11.0713 6.17878 10.8566 6.34838 10.687 6.563 10.6645L7.438 10.6645C7.68901 10.6909 7.87113 10.9157 7.84476 11.1667 7.82222 11.3814 7.65262 11.551 7.438 11.5735ZM7.438 9.63451 6.563 9.63451C6.31199 9.60814 6.12987 9.38329 6.15624 9.13226 6.17878 8.91765 6.34838 8.74805 6.563 8.72549L7.438 8.72551C7.68901 8.75188 7.87113 8.97673 7.84476 9.22775 7.82222 9.44237 7.65262 9.61197 7.438 9.63452ZM7.438 7.69551 6.563 7.69551C6.31199 7.66914 6.12987 7.44429 6.15624 7.19327 6.17878 6.97865 6.34838 6.80905 6.563 6.7865L7.438 6.78651C7.68901 6.81288 7.87113 7.03773 7.84476 7.28876 7.82222 7.50337 7.65262 7.67297 7.438 7.69553ZM10.938 11.5745 10.063 11.5745C9.81199 11.5481 9.62987 11.3233 9.65624 11.0723 9.67878 10.8577 9.84838 10.688 10.063 10.6655L10.938 10.6655C11.189 10.6919 11.3711 10.9167 11.3448 11.1678 11.3222 11.3824 11.1526 11.552 10.938 11.5745ZM10.938 9.63551 10.063 9.63551C9.81199 9.60915 9.62987 9.38429 9.65624 9.13327 9.67878 8.91866 9.84838 8.74905 10.063 8.7265L10.938 8.7265C11.189 8.75287 11.3711 8.97772 11.3448 9.22874 11.3222 9.44336 11.1526 9.61296 10.938 9.63551ZM10.938 7.6965 10.063 7.6965C9.81199 7.67014 9.62987 7.44528 9.65624 7.19426 9.67878 6.97964 9.84838 6.81004 10.063 6.78749L10.938 6.78751C11.189 6.81387 11.3711 7.03873 11.3448 7.28975 11.3222 7.50436 11.1526 7.67397 10.938 7.69652Z" fill="#77787B"/></g></svg>