<svg width="24" height="18" xmlns="http://www.w3.org/2000/svg" xmlns:xlink="http://www.w3.org/1999/xlink" overflow="hidden"><defs><clipPath id="clip0"><rect x="0" y="0" width="24" height="18"/></clipPath></defs><g clip-path="url(#clip0)"><path d="M21.977 3.083 18.79 3.083 18.212 1.321C17.9169 0.510502 17.1373-0.0211487 16.275 0L11.991 0C11.1287-0.0211487 10.3491 0.510502 10.054 1.321L9.476 3.083 2.023 3.083C0.952227 3.03896 0.0475822 3.86938 1.90735e-09 4.93999L0 16.14C0.0475822 17.2106 0.952227 18.041 2.023 17.997L21.977 17.997C23.0467 18.0411 23.9508 17.2124 24 16.143L24 4.943C23.954 3.87119 23.0489 3.03899 21.977 3.083ZM14.119 15.396C11.3852 15.642 8.96958 13.6252 8.72358 10.8914 8.47758 8.15761 10.4943 5.742 13.2282 5.496 13.5245 5.46933 13.8227 5.46933 14.119 5.496 16.8528 5.25 19.2684 7.26677 19.5144 10.0006 19.7604 12.7344 17.7437 15.15 15.0098 15.396 14.7135 15.4227 14.4153 15.4227 14.119 15.396Z" fill="#454545"/><path d="M14.119 7.005C12.2567 7.005 10.747 8.51471 10.747 10.377 10.747 12.2393 12.2567 13.749 14.119 13.749 15.9813 13.749 17.491 12.2393 17.491 10.377 17.491 8.51471 15.9813 7.005 14.119 7.005ZM16.467 10.245C16.149 10.563 15.358 10.286 14.7 9.62799 14.042 8.97 13.765 8.17801 14.083 7.86099 14.401 7.54401 15.192 7.82001 15.85 8.478 16.508 9.13602 16.785 9.927 16.467 10.245Z" fill="#454545"/><path d="M6.626 2.297C6.626 1.80382 6.22619 1.40401 5.733 1.40401L3.81 1.404C3.31681 1.404 2.917 1.80381 2.917 2.297L2.917 2.747 6.626 2.747 6.626 2.297Z" fill="#454545"/></g></svg>