<svg width="14" height="15" xmlns="http://www.w3.org/2000/svg" xmlns:xlink="http://www.w3.org/1999/xlink" overflow="hidden"><defs><clipPath id="clip0"><rect x="0" y="0" width="14" height="15"/></clipPath></defs><g clip-path="url(#clip0)"><path d="M10.8774 8.04566 10.8774 4.09846C10.8787 3.53187 10.6563 2.98766 10.2585 2.58419L8.5036 0.770164 8.5036 0.770164C8.09606 0.356405 7.54002 0.122742 6.95926 0.121189L1.39399 0.121189C0.678128 0.122257 0.0980749 0.702309 0.0970068 1.41817L0.0970068 12.635C0.0980749 13.3509 0.678128 13.931 1.39399 13.932L8.0758 13.932C9.44005 15.2518 11.6159 15.2158 12.9357 13.8516 14.2555 12.4873 14.2195 10.3115 12.8553 8.99166 12.3161 8.47008 11.6211 8.13922 10.8764 8.04954ZM0.961337 12.635 0.961337 1.41817C0.961337 1.17922 1.15504 0.985518 1.39399 0.985518L6.95926 0.985518C7.30677 0.986681 7.63949 1.12633 7.88373 1.37354L9.63761 3.18757 9.63761 3.18757C9.87651 3.42968 10.0101 3.75639 10.0091 4.09652L10.0091 8.04469C8.13034 8.28324 6.80065 9.99969 7.0392 11.8785 7.09177 12.2926 7.21952 12.6936 7.41616 13.0619L1.39399 13.0619C1.15504 13.0619 0.961337 12.8682 0.961337 12.6292ZM10.4437 14.0184C9.02676 14.0028 7.89066 12.8415 7.9062 11.4246 7.92173 10.0076 9.08302 8.87148 10.5 8.88702 11.9063 8.90244 13.0381 10.0471 13.0377 11.4535 13.034 12.8716 11.8814 14.0183 10.4633 14.0146 10.4571 14.0146 10.4509 14.0145 10.4447 14.0145Z" stroke="#454545" stroke-width="0.194013" fill="#454545"/></g></svg>