<svg width="14" height="14" xmlns="http://www.w3.org/2000/svg" xmlns:xlink="http://www.w3.org/1999/xlink" overflow="hidden"><defs><clipPath id="clip0"><rect x="0" y="0" width="14" height="14"/></clipPath></defs><g clip-path="url(#clip0)"><path d="M13.615 12.461 8.231 12.461C7.98802 12.4268 7.81696 12.2047 7.84601 11.961L7.84599 2.034C7.81749 1.7905 7.9883 1.56867 8.231 1.534L13.615 1.534C13.8577 1.56867 14.0285 1.7905 14 2.034L14 11.964C14.0273 12.2066 13.8567 12.4268 13.615 12.461Z" fill="#ECEFF1"/><path d="M12.077 5.077 8.231 5.077C8.01866 5.08783 7.83772 4.92447 7.82689 4.71211 7.81606 4.49976 7.97942 4.31883 8.19179 4.308 8.20485 4.30733 8.21794 4.30733 8.231 4.308L12.077 4.308C12.2894 4.29716 12.4703 4.46053 12.4811 4.67288 12.492 4.88524 12.3286 5.06616 12.1162 5.077 12.1032 5.07767 12.0901 5.07767 12.077 5.077Z" fill="#1976D2"/><path d="M12.077 6.61499 8.231 6.61499C8.01866 6.60416 7.85527 6.42323 7.8661 6.21088 7.87617 6.01367 8.0338 5.85605 8.231 5.84599L12.077 5.84599C12.2894 5.83516 12.4703 5.99852 12.4811 6.21088 12.492 6.42323 12.3286 6.60416 12.1162 6.61499 12.1032 6.61566 12.0901 6.61566 12.077 6.61499Z" fill="#1976D2"/><path d="M12.077 8.15302 8.231 8.15302C8.01866 8.16385 7.83772 8.00049 7.82689 7.78812 7.81606 7.57578 7.97942 7.39484 8.19179 7.384 8.20485 7.38333 8.21794 7.38333 8.231 7.384L12.077 7.384C12.2894 7.37317 12.4703 7.53653 12.4811 7.7489 12.492 7.96124 12.3286 8.14218 12.1162 8.15302 12.1032 8.15369 12.0901 8.15369 12.077 8.15302Z" fill="#1976D2"/><path d="M12.077 9.69202 8.231 9.69202C8.01866 9.70285 7.83772 9.53949 7.82689 9.32712 7.81606 9.11478 7.97942 8.93384 8.19179 8.923 8.20485 8.92233 8.21794 8.92233 8.231 8.923L12.077 8.923C12.2894 8.91217 12.4703 9.07553 12.4811 9.2879 12.492 9.50024 12.3286 9.68118 12.1162 9.69202 12.1032 9.69269 12.0901 9.69269 12.077 9.69202Z" fill="#1976D2"/><path d="M6.783 0.105C6.70303 0.0177126 6.58263-0.0203896 6.467 0.00500011L0.314 1.405C0.11531 1.46815-0.0144079 1.65901 1.04904e-08 1.867L0 12.134C-0.0128701 12.3406 0.116613 12.5295 0.314 12.592L6.467 13.992C6.48975 13.9991 6.51324 14.0034 6.537 14.005 6.62973 14.0037 6.71803 13.9651 6.782 13.898 6.87345 13.8011 6.92335 13.6722 6.921 13.539L6.921 0.467C6.92462 0.332841 6.87501 0.202701 6.783 0.105Z" fill="#1565C0"/><path d="M4.997 9.03101C4.97668 9.20746 4.83826 9.34711 4.662 9.369 4.64603 9.37016 4.62998 9.37016 4.61401 9.369 4.45399 9.36864 4.3108 9.26959 4.25401 9.12001L3.46 7.00301 2.666 9.12C2.59049 9.31877 2.36815 9.41869 2.16938 9.34319 2.03848 9.29346 1.9449 9.17659 1.925 9.03799L1.541 6.35001C1.52375 6.13808 1.68157 5.95229 1.8935 5.93504 2.08773 5.91924 2.26315 6.05104 2.302 6.242L2.474 7.442 3.099 5.774C3.19472 5.57491 3.43372 5.4911 3.63282 5.58682 3.71465 5.62616 3.78066 5.69217 3.82 5.774L4.409 7.345 4.616 5.48199C4.62726 5.26967 4.80852 5.10666 5.02085 5.11794 5.23318 5.1292 5.39618 5.31046 5.38492 5.52278 5.38413 5.5376 5.38249 5.55237 5.38 5.567Z" fill="#FAFAFA"/></g></svg>