<svg width="4" height="16" xmlns="http://www.w3.org/2000/svg" xmlns:xlink="http://www.w3.org/1999/xlink" overflow="hidden"><defs><clipPath id="clip0"><rect x="0" y="0" width="4" height="16"/></clipPath></defs><g clip-path="url(#clip0)"><path d="M4 2C4 3.10457 3.10457 4 2 4 0.895431 4 0 3.10457 0 2 -4.44089e-16 0.895431 0.895431 -2.22045e-16 2 -2.22045e-16 3.10457 -6.66134e-16 4 0.895431 4 2Z" fill="#454545"/><path d="M4 8C4 9.10457 3.10457 10 2 10 0.895431 10 0 9.10457 0 8 -4.44089e-16 6.89543 0.895431 6 2 6 3.10457 6 4 6.89543 4 8Z" fill="#454545"/><path d="M4 14C4 15.1046 3.10457 16 2 16 0.895431 16 0 15.1046 0 14 -4.44089e-16 12.8954 0.895431 12 2 12 3.10457 12 4 12.8954 4 14Z" fill="#454545"/></g></svg>