<svg width="15" height="15" xmlns="http://www.w3.org/2000/svg" xmlns:xlink="http://www.w3.org/1999/xlink" overflow="hidden"><defs><clipPath id="clip0"><rect x="0" y="0" width="15" height="15"/></clipPath></defs><g clip-path="url(#clip0)"><path d="M7.5 0 4.25 0C4.11193 0 4 0.111929 4 0.25L4 2 0.25 2C0.111929 2 0 2.11193 5.55112e-17 2.25L0 14.75C0 14.8881 0.111929 15 0.25 15L7.5 15C7.63807 15 7.75 14.8881 7.75 14.75L7.75 0.25C7.75 0.111929 7.63807 0 7.5 0ZM7.25 13 4.5 13 4.5 12.5 7.25 12.5ZM0.5 3.75 4 3.75 4 11.25 0.5 11.25ZM7.25 2.75 4.5 2.75 4.5 2 7.25 2ZM0.5 11.75 4 11.75 4 12.5 0.5 12.5ZM4.5 12 4.5 3.25 7.25 3.25 7.25 12ZM7.25 0.5 7.25 1.5 4.5 1.5 4.5 0.5ZM4 2.5 4 3.25 0.5 3.25 0.5 2.5ZM0.5 13 4 13 4 14.5 0.5 14.5ZM4.5 14.5 4.5 13.5 7.25 13.5 7.25 14.5Z"/><path d="M14.992 13.687 11.992 2.187C11.9569 2.05347 11.8201 1.97371 11.6866 2.00884 11.6864 2.0089 11.6862 2.00895 11.686 2.009L7.936 3.009C7.80559 3.04469 7.72717 3.17759 7.759 3.30901L10.759 14.809C10.7935 14.9421 10.9293 15.0221 11.0624 14.9877 11.0633 14.9875 11.0641 14.9872 11.065 14.987L14.815 13.987C14.9454 13.9513 15.0238 13.8184 14.992 13.687ZM8.703 4.954 11.97 4.083 12.088 4.533 8.821 5.405ZM12.214 5.018 13.664 10.58 10.398 11.451 8.94801 5.889ZM13.791 11.064 14.047 12.045 10.78 12.916 10.525 11.935ZM11.572 2.556 11.844 3.6 8.57701 4.471 8.30501 3.428ZM11.179 14.443 10.907 13.399 14.174 12.528 14.446 13.571Z"/><path d="M3.25 4.5 1.25 4.5C1.11193 4.5 1 4.61192 1 4.75L1 6.75C1 6.88808 1.11193 7 1.25 7L3.25 7C3.38807 7 3.5 6.88808 3.5 6.75L3.5 4.75C3.5 4.61192 3.38807 4.5 3.25 4.5ZM3 6.5 1.5 6.5 1.5 5 3 5Z"/></g></svg>