<svg width="15" height="18" xmlns="http://www.w3.org/2000/svg" xmlns:xlink="http://www.w3.org/1999/xlink" overflow="hidden"><defs><clipPath id="clip0"><rect x="0" y="0" width="15" height="18"/></clipPath></defs><g clip-path="url(#clip0)"><path d="M5.26253 6.19423C6.97301 6.19423 8.35964 4.80761 8.35964 3.09712 8.35964 1.38663 6.97301-1.13602e-07 5.26253-1.13602e-07 3.55203-1.13602e-07 2.16541 1.38663 2.16541 3.09712 2.16759 4.8067 3.55295 6.19204 5.26253 6.19423ZM5.26253 1.0562C6.38969 1.0562 7.30344 1.96995 7.30344 3.09712 7.30344 4.22428 6.38969 5.13804 5.26253 5.13804 4.13535 5.13804 3.2216 4.22428 3.2216 3.09712 3.2227 1.9704 4.13581 1.05729 5.26253 1.0562Z" fill="#454545"/><path d="M2.34806 9.72217 3.51842 9.72217 3.51842 10.8925 2.34806 10.8925Z" fill="#454545"/><path d="M11.0666 9.76585C10.6577 9.76439 10.2513 9.83148 9.86453 9.96439 9.88334 7.93138 8.27439 6.25586 6.24229 6.19225L3.67824 6.19225C1.6174 6.25813-0.00234604 7.97775 0.0550098 10.0388L0.0550098 16.8376 8.37156 16.8376C9.0751 17.5743 10.048 17.9932 11.0666 17.998 13.3404 17.8612 15.0728 15.907 14.936 13.6332 14.8107 11.5504 13.1495 9.88919 11.0666 9.76387ZM1.04966 10.0408C1.00789 8.5459 2.18252 7.29851 3.67725 7.25043L3.7507 7.25043 4.46244 8.32549 4.46244 12.8838 5.45511 12.8838 5.45511 8.32549 6.16685 7.25043 6.24031 7.25043C7.73504 7.29849 8.90966 8.5459 8.86789 10.0408L8.86789 10.4915C7.79994 11.29 7.17561 12.549 7.18632 13.8824 7.18483 14.5413 7.33495 15.1918 7.62508 15.7834L1.04966 15.7834ZM11.0666 16.9438C9.37632 17.0474 7.92205 15.7611 7.81843 14.0708 7.71482 12.3805 9.0011 10.9262 10.6914 10.8226 12.3817 10.719 13.836 12.0053 13.9396 13.6956 13.9435 13.7581 13.9454 13.8208 13.9454 13.8834 13.9916 15.522 12.705 16.8898 11.0666 16.9438Z" fill="#454545"/><path d="M10.3887 14.1445 9.62433 13.3801 8.87683 14.1276 10.3877 15.6384 12.778 13.2491 12.0315 12.5026Z" fill="#454545"/></g></svg>