<svg width="15" height="17" xmlns="http://www.w3.org/2000/svg" xmlns:xlink="http://www.w3.org/1999/xlink" overflow="hidden"><defs><clipPath id="clip0"><rect x="0" y="0" width="15" height="17"/></clipPath></defs><g clip-path="url(#clip0)"><path d="M9.8889 7.21233C7.89755 7.21233 6.28324 5.59802 6.28324 3.60666 6.28324 1.6153 7.89755 0.000991505 9.8889 0.000991505 11.8803 0.000991505 13.4946 1.6153 13.4946 3.60666 13.4918 5.59689 11.8791 7.2096 9.8889 7.21233ZM9.8889 0.720936C8.29571 0.720936 7.00417 2.01248 7.00417 3.60567 7.00417 5.19886 8.29571 6.4904 9.8889 6.4904 11.4821 6.4904 12.7736 5.19886 12.7736 3.60567 12.772 2.01315 11.4814 0.722576 9.8889 0.720936Z" fill="#454545"/><path d="M14.5775 8.53124C14.482 8.53119 14.3904 8.49341 14.3226 8.42612L12.1092 6.21274C11.9762 6.06426 11.9887 5.83605 12.1372 5.70303 12.2743 5.5802 12.4818 5.5802 12.6189 5.70303L14.8313 7.91542C14.9721 8.05582 14.9724 8.28374 14.832 8.42449 14.7643 8.49235 14.6723 8.53042 14.5765 8.53025Z" fill="#454545"/><path d="M0.423526 12.9818C0.224558 12.9818 0.0631086 12.8208 0.0625619 12.6218L0.062562 1.80283C0.0641999 0.807836 0.870398 0.00163782 1.8654-4.06659e-08L6.91393 0C7.11301 0.0104454 7.26593 0.1803 7.25548 0.379381 7.2458 0.563859 7.09841 0.711256 6.91393 0.720936L1.8654 0.720936C1.26811 0.721482 0.784044 1.20555 0.783498 1.80283L0.783498 12.6218C0.782953 12.8204 0.622106 12.9813 0.423526 12.9818Z" fill="#454545"/><path d="M4.75013 14.1916 1.8654 14.1916C0.869719 14.1916 0.0625621 13.3845 0.0625621 12.3888 0.0625621 11.3931 0.869719 10.586 1.8654 10.586L12.3234 10.586 12.3234 8.78312C12.313 8.58404 12.4659 8.41418 12.665 8.40374 12.8641 8.39329 13.0339 8.54621 13.0444 8.74529 13.045 8.75789 13.045 8.77052 13.0444 8.78312L13.0444 10.9469C13.0444 11.1463 12.8828 11.3079 12.6834 11.3079L1.8654 11.3079C1.26788 11.3079 0.783498 11.7923 0.783498 12.3898 0.783498 12.9873 1.26788 13.4717 1.8654 13.4717L4.75013 13.4717C4.94921 13.4821 5.10213 13.652 5.09169 13.8511 5.08201 14.0355 4.93461 14.1829 4.75013 14.1926Z" fill="#454545"/><path d="M11.9565 14.1797 7.62991 14.1797C7.43083 14.1902 7.26097 14.0372 7.25053 13.8382 7.24008 13.6391 7.393 13.4692 7.59208 13.4588 7.60468 13.4581 7.61731 13.4581 7.62991 13.4588L11.5965 13.4588 11.5965 10.935C11.5861 10.7359 11.739 10.5661 11.9381 10.5556 12.1372 10.5452 12.307 10.6981 12.3175 10.8972 12.3181 10.9098 12.3181 10.9224 12.3175 10.935L12.3175 13.8198C12.3169 14.0187 12.1555 14.1797 11.9565 14.1797Z" fill="#454545"/><path d="M7.98492 17C7.90288 17.0001 7.8232 16.9725 7.75882 16.9217L6.18209 15.6583 4.60436 16.9207C4.44852 17.045 4.2214 17.0194 4.09708 16.8636 4.04618 16.7998 4.01841 16.7206 4.01829 16.639L4.01829 12.3124C4.00784 12.1133 4.16076 11.9435 4.35984 11.933 4.55892 11.9226 4.72878 12.0755 4.73922 12.2746 4.73988 12.2872 4.73988 12.2998 4.73922 12.3124L4.73922 15.8884 5.95698 14.9145C6.08885 14.809 6.27631 14.809 6.40818 14.9145L7.62495 15.8884 7.62495 12.3124C7.6145 12.1133 7.76742 11.9435 7.9665 11.933 8.16558 11.9226 8.33544 12.0755 8.34588 12.2746 8.34655 12.2872 8.34655 12.2998 8.34588 12.3124L8.34588 16.64C8.34643 16.8388 8.18571 17.0004 7.98691 17.001 7.98624 17.001 7.98558 17.001 7.98492 17.001Z" fill="#454545"/><path d="M9.46844 12.7527 2.97804 12.7527C2.77896 12.7423 2.62604 12.5724 2.63648 12.3733 2.64616 12.1889 2.79356 12.0415 2.97804 12.0318L9.46943 12.0318C9.66851 12.0213 9.83837 12.1743 9.84881 12.3733 9.85926 12.5724 9.70634 12.7423 9.50726 12.7527 9.49466 12.7534 9.48203 12.7534 9.46943 12.7527Z" fill="#454545"/></g></svg>