<svg width="20" height="20" xmlns="http://www.w3.org/2000/svg" xmlns:xlink="http://www.w3.org/1999/xlink" overflow="hidden"><defs><clipPath id="clip0"><rect x="0" y="0" width="20" height="20"/></clipPath></defs><g clip-path="url(#clip0)"><path d="M12.3558 11.9518 13.7716 11.3789 13.0537 9.59304 11.6368 10.163C11.2041 9.46361 10.6214 8.86903 9.931 8.42215L10.5309 7.0163 8.76112 6.26337 8.16118 7.66823C7.36078 7.47976 6.52853 7.47122 5.72443 7.64323L5.15448 6.22538 3.36866 6.9433 3.9386 8.36016C3.23924 8.79293 2.64466 9.37555 2.19778 10.066L0.79192 9.46605 0.0369968 11.2359 1.43686 11.8358C1.24792 12.6361 1.23904 13.4684 1.41086 14.2726L-0.00600052 14.8425 0.711927 16.6283 2.12879 16.0584C2.56182 16.7579 3.14479 17.3525 3.83562 17.7992L3.23568 19.2041 5.0055 19.959 5.60544 18.5531C6.4084 18.7428 7.24352 18.7514 8.05019 18.5781L8.62014 19.995 10.406 19.2771 9.83601 17.8602C10.5331 17.428 11.1259 16.8468 11.5718 16.1584L12.9777 16.7583 13.7306 14.9885 12.3258 14.3886C12.5147 13.5879 12.5236 12.7553 12.3518 11.9508ZM8.15618 16.2594C6.41977 16.9575 4.44617 16.1158 3.74804 14.3794 3.04991 12.643 3.8916 10.6694 5.62802 9.97124 7.36427 9.27318 9.3377 10.1146 10.036 11.8508 10.7331 13.5876 9.89027 15.5607 8.15345 16.2579 8.15303 16.258 8.15261 16.2582 8.15218 16.2584Z" fill="#33AA26"/><path d="M19.999 5.42646 19.999 4.12059 18.9621 4.12059C18.8667 3.57077 18.6505 3.04896 18.3292 2.59274L19.0621 1.85981 18.1392 0.936907 17.4053 1.66983C16.9491 1.34834 16.4273 1.13215 15.8774 1.0369L15.8774 0.000999451 14.5775 0.000999451 14.5775 1.0379C14.0277 1.13318 13.5058 1.34937 13.0497 1.67083L12.3168 0.937906 11.3939 1.86081 12.1268 2.59374C11.8054 3.04996 11.5893 3.57177 11.4938 4.12159L10.453 4.12159 10.453 5.42746 11.4888 5.42746C11.5842 5.97729 11.8004 6.49912 12.1218 6.95531L11.3889 7.68823 12.3118 8.61114 13.0447 7.87821C13.5009 8.19956 14.0227 8.41573 14.5725 8.51114L14.5725 9.54704 15.8784 9.54704 15.8784 8.50715C16.4282 8.41179 16.9501 8.19562 17.4063 7.87421L18.1392 8.60714 19.0621 7.68423 18.3292 6.9513C18.6506 6.49512 18.8667 5.97329 18.9621 5.42346ZM15.2265 6.51235C14.2661 6.51235 13.4877 5.73385 13.4877 4.77352 13.4877 3.8132 14.2662 3.0347 15.2265 3.0347 16.1868 3.0347 16.9653 3.81319 16.9653 4.77352 16.9653 5.73385 16.1868 6.51235 15.2265 6.51235 15.2261 6.51235 15.2258 6.51235 15.2255 6.51235Z" fill="#93BB42"/></g></svg>