<svg width="18" height="15" xmlns="http://www.w3.org/2000/svg" xmlns:xlink="http://www.w3.org/1999/xlink" overflow="hidden"><defs><clipPath id="clip0"><rect x="0" y="0" width="18" height="15"/></clipPath></defs><g clip-path="url(#clip0)"><path d="M17.7744 7.32304C18.0463 7.09054 18.0782 6.68169 17.8457 6.40984 17.8048 6.36202 17.7571 6.32041 17.7042 6.28633L9.65922 0.358853C9.26409 0.0924964 8.74555 0.0976815 8.35582 0.371888L0.27973 6.60416C-0.0134617 6.8052-0.0881697 7.20585 0.112865 7.49904 0.148481 7.55098 0.191528 7.59742 0.240628 7.63686L0.441152 7.81432C0.782285 8.10991 1.27888 8.1411 1.65432 7.89052L2.25589 7.43533 2.25589 14.0977C2.29727 14.5429 2.68841 14.8725 3.13418 14.8377L6.2824 14.8377C6.72817 14.8725 7.11931 14.5429 7.1607 14.0977L7.1607 9.43957 11.1712 9.43957 11.1712 14.1007C11.1836 14.5225 11.5357 14.8543 11.9574 14.8418 11.9704 14.8414 11.9834 14.8407 11.9963 14.8397L15.331 14.8397C15.7768 14.8745 16.1679 14.5449 16.2093 14.0997L16.2093 7.53158 16.5813 7.8063C16.7818 7.95769 17.217 7.83638 17.5438 7.53359Z" fill="#FFFFFF"/></g></svg>