<svg width="14" height="14" xmlns="http://www.w3.org/2000/svg" xmlns:xlink="http://www.w3.org/1999/xlink" overflow="hidden"><defs><clipPath id="clip0"><rect x="0" y="0" width="14" height="14"/></clipPath></defs><g clip-path="url(#clip0)"><path d="M12.658 0 1.342 0C0.594107 0.00824261-0.00610829 0.620086 7.62939e-09 1.368L0 12.632C-0.0061083 13.3799 0.594107 13.9918 1.342 14L12.658 14C13.4059 13.9918 14.0061 13.3799 14 12.632L14 1.368C14.0061 0.620086 13.4059 0.00824261 12.658 0ZM12.658 1.368 12.658 7.352 10.392 5.182C10.074 4.86654 9.56054 4.86858 9.24508 5.18654 9.21563 5.21622 9.18853 5.24814 9.164 5.282L6.5 8.8C6.41136 8.91506 6.27424 8.98233 6.129 8.982 6.03108 8.98265 5.9356 8.95141 5.857 8.893L4.118 7.607C3.71395 7.32286 3.17005 7.3429 2.788 7.656L1.342 8.906 1.342 1.368Z" fill="#454545"/><path d="M5.063 5.008C5.69315 5.008 6.20399 4.49716 6.20399 3.867 6.20399 3.23685 5.69315 2.72601 5.063 2.72601 4.43284 2.72601 3.922 3.23685 3.922 3.867 3.92255 4.49693 4.43307 5.00745 5.063 5.008Z" fill="#454545"/></g></svg>