<svg width="30" height="33" xmlns="http://www.w3.org/2000/svg" xmlns:xlink="http://www.w3.org/1999/xlink" overflow="hidden"><defs><clipPath id="clip0"><rect x="0" y="0" width="30" height="33"/></clipPath></defs><g clip-path="url(#clip0)"><path d="M25.65 22.7875 27.473 33.0005 12.755 33.0005 11.649 28.3235 4.36 28.3235 3.06 21.2235 0 21.2235 0 19.2955 3.841 12.9345 4.471 9.0425C6.21624 3.67131 11.2104 0.0257479 16.858 0.000499817L16.92 0.0005C24.1312-0.0121992 29.9873 5.82332 30 13.0345 30.0065 16.7569 28.424 20.3052 25.65 22.7875Z" fill="#FFE3D9"/><path d="M25.574 22.7875 27.429 33.0005 16.629 33.0005 16.629 0.0005 16.692 0.0005C23.9735-0.0671979 29.9317 5.77996 30.001 13.0615 29.9976 16.7904 28.3837 20.336 25.574 22.7875Z" fill="#FCCCBA"/><path d="M24.142 11.7215C24.142 14.0215 22.187 16.7215 16.829 20.0805L16.829 20.0805C11.471 16.7265 9.51601 14.0225 9.51601 11.7225 9.51482 9.41837 11.3817 7.54954 13.6859 7.54835 14.8903 7.54773 16.0363 8.06769 16.829 8.97449L16.829 8.97449C18.347 7.24032 20.9834 7.06505 22.7175 8.58301 23.6224 9.37505 24.1416 10.519 24.142 11.7215Z" fill="#FF6C52"/><path d="M24.084 11.7215C24.084 14.0215 22.129 16.7215 16.771 20.0805L15.865 14.5265 18.131 12.3465 16.771 8.97449C18.2875 7.23977 20.9231 7.06285 22.6579 8.57935 23.5644 9.37185 24.0843 10.5174 24.084 11.7215Z" fill="#F92814"/></g></svg>