<svg width="15" height="15" xmlns="http://www.w3.org/2000/svg" xmlns:xlink="http://www.w3.org/1999/xlink" overflow="hidden"><defs><clipPath id="clip0"><rect x="0" y="0" width="15" height="15"/></clipPath></defs><g clip-path="url(#clip0)"><path d="M0 11.045C4.44089e-16 13.2293 1.77071 15 3.955 15 6.13929 15 7.91 13.2293 7.91 11.045 7.91 10.934 7.905 10.824 7.896 10.715 7.958 10.7323 8.02 10.7483 8.082 10.763 8.86138 11.0028 9.70941 10.8177 10.318 10.275L11.561 9.032C12.322 8.271 12.32 6.937 11.587 5.632L14.231 3.568C15.0947 2.88749 15.2432 1.63564 14.5627 0.771911 13.8822-0.0918135 12.6304-0.240336 11.7666 0.440177 11.6447 0.536264 11.5344 0.646286 11.438 0.768L9.373 3.413C8.063 2.68 6.729 2.678 5.973 3.439L4.725 4.682C4.17934 5.28909 3.9939 6.13876 4.237 6.918 4.251 6.98 4.268 7.042 4.285 7.104 4.175 7.095 4.065 7.09 3.955 7.09 1.77186 7.09275 0.00275468 8.86186-7.62939e-08 11.045ZM12.131 1.308C12.5083 0.823422 13.207 0.736453 13.6916 1.11375 14.1761 1.49105 14.2631 2.18973 13.8858 2.67431 13.8292 2.74703 13.7638 2.81243 13.691 2.869L9.561 6.1C9.22579 6.04171 8.96329 5.77921 8.905 5.444ZM8.824 4.115 8 5.152 8 5.3C8.00708 6.23594 8.76406 6.99292 9.7 7L9.851 7 10.888 6.174C11.3683 6.8361 11.389 7.72629 10.94 8.41 10.6993 8.63143 10.3796 8.74675 10.053 8.73 9.08272 8.64289 8.18002 8.19635 7.522 7.478 6.95111 6.93258 6.54117 6.2407 6.337 5.478 6.17032 4.9934 6.26601 4.45706 6.59 4.06 7.27402 3.61202 8.16384 3.63392 8.825 4.115ZM5.408 5.242C5.56871 6.33569 6.09452 7.3429 6.9 8.1 7.65978 8.90247 8.6662 9.42768 9.759 9.592 9.722 9.611 9.359 10.156 8.28 9.906 7.5173 9.70183 6.82542 9.29189 6.28 8.721 5.70915 8.17555 5.29922 7.48368 5.095 6.721 4.845 5.636 5.395 5.279 5.409 5.243ZM5.657 9.342C6.03819 9.72599 6.47142 10.0545 6.944 10.318 7.34499 11.9683 6.33226 13.6311 4.682 14.0321 3.03174 14.4331 1.36888 13.4204 0.967891 11.7701 0.566902 10.1199 1.57963 8.45699 3.22989 8.056 3.70699 7.94007 4.20491 7.94007 4.682 8.056 4.94545 8.5286 5.27399 8.96183 5.658 9.343Z" fill="#454545"/></g></svg>