<svg width="15" height="14" xmlns="http://www.w3.org/2000/svg" xmlns:xlink="http://www.w3.org/1999/xlink" overflow="hidden"><defs><clipPath id="clip0"><rect x="0" y="0" width="15" height="14"/></clipPath></defs><g clip-path="url(#clip0)"><path d="M7.5 14C7.28475 13.9993 7.07766 13.9175 6.92 13.771 6.314 13.215 5.73 12.693 5.214 12.232L5.214 12.232C3.8752 11.1114 2.62914 9.88437 1.488 8.563 0.557008 7.49948 0.030206 6.14212 2.73705e-07 4.729-0.0237695 3.50208 0.399144 2.30832 1.19 1.37 1.94231 0.497629 3.03805-0.00275464 4.19 6.00815e-07 5.05167-0.00150078 5.88628 0.300897 6.547 0.854001 6.91301 1.15535 7.23394 1.5076 7.5 1.9 7.76607 1.5076 8.08699 1.15535 8.453 0.854001 9.11372 0.300897 9.94833-0.00150081 10.81 5.6839e-07 11.962-0.00275467 13.0577 0.497629 13.81 1.37 14.6009 2.30832 15.0238 3.50208 15 4.729 14.9699 6.14214 14.4431 7.49953 13.512 8.563 12.3718 9.88358 11.1267 11.1099 9.789 12.23 9.273 12.691 8.689 13.215 8.08 13.772 7.92213 13.9181 7.7151 13.9995 7.5 14ZM4.19 0.922C3.28646 0.919519 2.4268 1.31137 1.836 1.995 1.19643 2.76036 0.856375 3.73184 0.879 4.729 0.908607 5.9292 1.36408 7.07975 2.164 7.975 3.27341 9.25381 4.4829 10.4422 5.781 11.529L5.781 11.529C6.298 11.992 6.881 12.516 7.495 13.076 8.109 12.515 8.695 11.99 9.215 11.526 10.513 10.4395 11.7225 9.25142 12.832 7.973 13.6323 7.07789 14.0881 5.92733 14.118 4.727 14.1406 3.72984 13.8006 2.75836 13.161 1.993 12.5705 1.31091 11.7122 0.919892 10.81 0.922 10.1448 0.921629 9.50077 1.15567 8.991 1.583 8.58095 1.92813 8.23703 2.3449 7.976 2.813 7.83335 3.07616 7.50438 3.17386 7.24121 3.03121 7.14887 2.98116 7.07306 2.90535 7.023 2.813 6.76265 2.345 6.41941 1.92823 6.01 1.583 5.49997 1.15545 4.85553 0.921394 4.19 0.922Z" fill="#454545"/></g></svg>