<svg width="20" height="20" xmlns="http://www.w3.org/2000/svg" xmlns:xlink="http://www.w3.org/1999/xlink" overflow="hidden"><defs><clipPath id="clip0"><rect x="0" y="0" width="20" height="20"/></clipPath></defs><g clip-path="url(#clip0)"><path d="M11.405 14.252 11.272 14.797C10.872 14.955 10.553 15.075 10.315 15.157 10.0472 15.2444 9.76665 15.2863 9.485 15.281 9.07792 15.3061 8.6759 15.18 8.356 14.927 8.09398 14.7025 7.94705 14.3719 7.956 14.027 7.95613 13.8822 7.96615 13.7375 7.986 13.594 8.00667 13.4467 8.04 13.28 8.086 13.094L8.586 11.326C8.63067 11.1567 8.668 10.9963 8.698 10.845 8.72673 10.7088 8.7418 10.5702 8.743 10.431 8.7613 10.261 8.7109 10.0907 8.603 9.958 8.44669 9.8511 8.25719 9.8039 8.069 9.825 7.93342 9.82586 7.79868 9.8464 7.669 9.886 7.533 9.926 7.417 9.965 7.319 10.001L7.453 9.456C7.78033 9.32267 8.09333 9.20867 8.392 9.114 8.66603 9.02333 8.95239 8.97543 9.241 8.972 9.64204 8.94568 10.0385 9.06976 10.353 9.32 10.6119 9.54818 10.7553 9.88009 10.744 10.225 10.744 10.302 10.735 10.437 10.717 10.631 10.7015 10.8116 10.668 10.9901 10.617 11.164L10.117 12.925C10.0721 13.0846 10.0357 13.2465 10.008 13.41 9.98028 13.5457 9.96389 13.6835 9.959 13.822 9.9378 13.9967 9.99532 14.1719 10.116 14.3 10.2789 14.4 10.4697 14.4445 10.66 14.427 10.7992 14.424 10.9374 14.4025 11.071 14.363 11.185 14.3346 11.2967 14.2975 11.405 14.252ZM11.531 6.859C11.5341 7.15983 11.4055 7.44698 11.179 7.645 10.953 7.85881 10.652 7.97519 10.341 7.969 10.0289 7.97463 9.72684 7.85841 9.499 7.645 9.27319 7.44741 9.14498 7.16103 9.148 6.861 9.14544 6.5602 9.27349 6.27308 9.499 6.074 9.97425 5.63829 10.7038 5.63829 11.179 6.074 11.4041 6.2726 11.5325 6.55879 11.531 6.859Z" fill="#2B68A0"/><path d="M19.6 10C19.6 15.3019 15.3019 19.6 10 19.6 4.69807 19.6 0.4 15.3019 0.4 10 0.4 4.69807 4.69807 0.4 10 0.4 15.3019 0.4 19.6 4.69807 19.6 10Z" stroke="#2B68A0" stroke-width="0.8" fill="none"/></g></svg>