<svg width="16" height="14" xmlns="http://www.w3.org/2000/svg" xmlns:xlink="http://www.w3.org/1999/xlink" overflow="hidden"><defs><clipPath id="clip0"><rect x="0" y="0" width="16" height="14"/></clipPath></defs><g clip-path="url(#clip0)"><path d="M6.54601 7.446 9.45401 7.446 9.45401 8.776 6.54601 8.776Z" fill="#7938C4"/><path d="M12.981 8.445 10.344 8.445 10.344 8.908C10.3423 9.16537 10.1324 9.37266 9.87502 9.371 9.87501 9.371 9.87501 9.371 9.875 9.371L6.125 9.371C5.86764 9.37267 5.65766 9.16538 5.656 8.90802 5.656 8.90801 5.656 8.908 5.656 8.908L5.656 8.445 3.02 8.445C2.41612 8.44799 1.87837 8.06343 1.686 7.491L0 2.50101 0 12.611C0.00605278 13.3822 0.634739 14.0033 1.406 14L14.594 14C15.3653 14.0033 15.9939 13.3822 16 12.611L16 2.50201 14.315 7.491C14.1226 8.06343 13.5849 8.448 12.981 8.44501Z" fill="#7938C4"/><path d="M9.868 0 6.132 0C5.34455 0.0164098 4.71861 0.666487 4.732 1.454L4.732 1.939 0.831999 1.939 2.595 7.423C2.65499 7.61791 2.83407 7.75172 3.038 7.754L5.665 7.754 5.665 7.27C5.65998 7.00716 5.86899 6.79002 6.13183 6.785 6.13189 6.785 6.13194 6.785 6.132 6.785L9.868 6.785C10.1308 6.78992 10.3399 7.00699 10.335 7.26983 10.335 7.26989 10.335 7.26994 10.335 7.27L10.335 7.755 12.962 7.755C13.1659 7.75272 13.345 7.61892 13.405 7.424L15.166 1.94 11.266 1.94 11.266 1.454C11.2794 0.667251 10.6547 0.017494 9.868-3.8147e-09ZM5.668 1.939 5.668 1.454C5.66298 1.19116 5.87199 0.97402 6.13483 0.969003 6.13489 0.969002 6.13494 0.969001 6.135 0.969L9.871 0.969C10.1338 0.973923 10.3429 1.19099 10.338 1.45383 10.338 1.45389 10.338 1.45394 10.338 1.454L10.338 1.939Z" fill="#7938C4"/></g></svg>