<svg width="18" height="18" xmlns="http://www.w3.org/2000/svg" xmlns:xlink="http://www.w3.org/1999/xlink" overflow="hidden"><defs><clipPath id="clip0"><rect x="0" y="0" width="18" height="18"/></clipPath></defs><g clip-path="url(#clip0)"><path d="M16.475 3.993 16.206 4.078 14.771 4.206 14.366 4.853 14.072 4.76 12.93 3.731 12.763 3.196 12.541 2.625 11.823 1.982 10.976 1.816 10.963 2.203 11.792 3.012 12.198 3.49 11.742 3.728 11.363 3.619 10.806 3.387 10.825 2.938 10.095 2.638 9.853 3.693 9.117 3.86 9.19 4.448 10.149 4.632 10.315 3.692 11.107 3.809 11.475 4.024 12.065 4.024 12.465 4.833 13.543 5.92 13.464 6.342 12.6 6.232 11.107 6.985 10.033 8.274 9.893 8.845 9.507 8.845 8.788 8.514 8.088 8.845 8.262 9.581 8.562 9.231 9.096 9.214 9.059 9.875 9.502 10.004 9.944 10.504 10.666 10.304 11.49 10.434 12.447 10.691 12.925 10.747 13.736 11.667 15.3 12.587 14.293 14.512 13.225 15.012 12.82 16.112 11.275 17.148 11.11 17.743C15.9362 16.5866 18.9112 11.7367 17.7548 6.91049 17.5054 5.86953 17.072 4.88151 16.475 3.993Z" fill="#0CA7DF"/><path d="M10.038 13.701 9.382 12.485 9.982 11.231 9.382 11.051 8.706 10.377 7.206 10.041 6.706 9.001 6.706 9.618 6.496 9.618 5.206 7.869 5.206 6.428 4.257 4.89 2.757 5.158 1.743 5.158 1.234 4.824 1.883 4.309 1.235 4.459C-1.27735 8.74277 0.158676 14.2521 4.44245 16.7645 5.82531 17.5755 7.39986 18.0021 9.003 18 9.38091 17.9963 9.75826 17.97 10.133 17.921L10.039 16.83C10.039 16.83 10.452 15.21 10.452 15.155 10.452 15.1 10.038 13.701 10.038 13.701Z" fill="#0CA7DF"/><path d="M3.345 2.9 4.945 2.677 5.682 2.277 6.511 2.516 7.836 2.443 8.29 1.729 8.952 1.838 10.563 1.686 11.006 1.198 11.631 0.781 12.515 0.914 12.837 0.865C9.11809-0.897005 4.67734 0.0959202 2.063 3.274L2.063 3.274ZM9.383 0.9 10.302 0.394 10.892 0.735 10.037 1.386 9.221 1.468 8.854 1.23ZM6.663 0.969 7.069 1.138 7.596 0.969 7.885 1.469 6.663 1.793 6.073 1.448C6.073 1.448 6.646 1.077 6.663 0.969Z" fill="#0CA7DF"/></g></svg>