<svg width="16" height="17" xmlns="http://www.w3.org/2000/svg" xmlns:xlink="http://www.w3.org/1999/xlink" overflow="hidden"><defs><clipPath id="clip0"><rect x="0" y="0" width="16" height="17"/></clipPath></defs><g clip-path="url(#clip0)"><path d="M14.0001 0.646491 2.00087 0.646491C1.17563 0.650892 0.508956 1.32114 0.508968 2.1464L0.500968 15.6456 3.50078 12.6457 14.0001 12.6457C14.8285 12.6457 15.5 11.9742 15.5 11.1458L15.5 2.1464C15.5 1.31802 14.8285 0.646491 14.0001 0.646491ZM12.5002 9.64593 3.50078 9.64593 3.50078 8.14602 12.5002 8.14602ZM12.5002 7.39607 3.50078 7.39607 3.50078 5.89616 12.5002 5.89616ZM12.5002 5.14621 3.50078 5.14621 3.50078 3.6463 12.5002 3.6463Z" stroke="#EEEEEE" stroke-width="0.999937" fill="none"/></g></svg>