<svg width="31" height="27" xmlns="http://www.w3.org/2000/svg" xmlns:xlink="http://www.w3.org/1999/xlink" overflow="hidden"><defs><clipPath id="clip0"><rect x="0" y="0" width="31" height="27"/></clipPath></defs><g clip-path="url(#clip0)"><path d="M7.858 19.744C7.90206 21.121 9.05186 22.2028 10.429 22.163L25.858 22.163 31.001 27 31.001 7.651C30.9569 6.27359 29.8065 5.19161 28.429 5.232L10.429 5.232C9.05186 5.19217 7.90206 6.27399 7.858 7.651Z" fill="#2B68A0"/><path d="M24.142 15.512C24.0979 16.889 22.9481 17.9708 21.571 17.931L6.143 17.931 1 22.768 1 3.419C1.04406 2.04199 2.19386 0.960168 3.571 1L21.571 1C22.9481 0.960168 24.0979 2.04199 24.142 3.419Z" stroke="#2B68A0" stroke-width="2" stroke-linecap="round" stroke-linejoin="round" fill="#FFFFFF"/></g></svg>