<svg width="24" height="24" xmlns="http://www.w3.org/2000/svg" xmlns:xlink="http://www.w3.org/1999/xlink" overflow="hidden"><defs><clipPath id="clip0"><rect x="0" y="0" width="24" height="24"/></clipPath></defs><g clip-path="url(#clip0)"><path d="M9.811 4.99C8.45548 4.04603 7.2734 2.87478 6.317 1.528L5.507 0.312C5.2973-0.0127853 4.86402-0.106082 4.53923 0.103617 4.33647 0.234533 4.21545 0.46067 4.219 0.702L4.219 11.734C3.79352 11.4808 3.30812 11.3458 2.813 11.343 1.25998 11.343 0.000999964 12.602 0.000999964 14.155 0.000999964 15.708 1.25998 16.967 2.813 16.967 4.36602 16.967 5.625 15.708 5.625 14.155L5.625 3.011C6.60043 4.1927 7.72826 5.23983 8.979 6.125 9.91954 6.81207 10.125 8.13151 9.43795 9.07205 9.04066 9.61591 8.40751 9.9373 7.734 9.937 7.34574 9.937 7.031 10.2517 7.031 10.64 7.031 11.0283 7.34574 11.343 7.734 11.343 9.67583 11.343 11.25 9.76889 11.2501 7.82706 11.2501 6.70604 10.7155 5.6522 9.811 4.99Z" fill="#454545"/><path d="M23.103 5.74599 13.166 8.559C12.8635 8.6443 12.655 8.92073 12.656 9.235L12.656 18.767C12.2305 18.5138 11.7451 18.3788 11.25 18.376 9.69641 18.376 8.43698 19.6354 8.43698 21.189 8.43698 22.7426 9.69641 24.002 11.25 24.002 12.8036 24.002 14.063 22.7426 14.063 21.189L14.063 12.579 22.594 10.168 22.594 15.955C22.1685 15.7018 21.6831 15.5668 21.188 15.564 19.6344 15.564 18.375 16.8234 18.375 18.377 18.375 19.9306 19.6344 21.19 21.188 21.19 22.7416 21.19 24.001 19.9306 24.001 18.377L24.001 6.422C24.0035 6.03541 23.6922 5.71996 23.3056 5.71742 23.237 5.71697 23.1688 5.7266 23.103 5.746Z" fill="#454545"/></g></svg>