<svg width="22" height="14" xmlns="http://www.w3.org/2000/svg" xmlns:xlink="http://www.w3.org/1999/xlink" overflow="hidden"><defs><clipPath id="clip0"><rect x="0" y="0" width="22" height="14"/></clipPath></defs><g clip-path="url(#clip0)"><path d="M14.721 6.06938C16.2629 6.06938 17.5129 4.81942 17.5129 3.27752 17.5129 1.73562 16.2629 0.485666 14.721 0.485666 13.1791 0.485666 11.9292 1.73562 11.9292 3.27752 11.9227 4.81299 13.1622 6.06294 14.6977 6.06938 14.7055 6.06941 14.7132 6.06941 14.721 6.06938ZM7.2751 6.06938C8.817 6.06938 10.067 4.81942 10.067 3.27752 10.067 1.73562 8.817 0.485666 7.2751 0.485666 5.7332 0.485666 4.48324 1.73562 4.48324 3.27752 4.4768 4.81299 5.71631 6.06295 7.25178 6.06939 7.2602 6.06942 7.26862 6.06942 7.27704 6.06938ZM7.2751 7.93062C5.10656 7.93062 0.759798 9.01925 0.759798 11.1878L0.759798 13.5143 13.7923 13.5143 13.7923 11.1878C13.7923 9.01537 9.44558 7.93062 7.27704 7.93062ZM14.721 7.93062C14.4515 7.93062 14.1394 7.94904 13.8185 7.97715 14.9265 8.67493 15.6139 9.87893 15.6516 11.1878L15.6516 13.5143 21.2363 13.5143 21.2363 11.1878C21.2383 9.01537 16.8915 7.93062 14.721 7.93062Z" stroke="#EEEEEE" stroke-width="0.969395" fill="none"/></g></svg>