<svg width="15" height="15" xmlns="http://www.w3.org/2000/svg" xmlns:xlink="http://www.w3.org/1999/xlink" overflow="hidden"><defs><clipPath id="clip0"><rect x="0" y="0" width="15" height="15"/></clipPath></defs><g clip-path="url(#clip0)"><path d="M12.4958 7.73577 12.4958 7.26423C12.4417 6.10191 11.9825 4.99518 11.1978 4.136L12.4614 2.86844C13.1354 3.35836 14.079 3.20913 14.5689 2.53513 15.0588 1.86113 14.9096 0.917583 14.2356 0.427664 13.5616-0.0622559 12.618 0.0869732 12.1281 0.760975 11.7437 1.28988 11.7437 2.00622 12.1281 2.53513L10.8645 3.79877C10.0053 3.01409 8.89858 2.55489 7.73626 2.50082L7.26472 2.50082C6.1024 2.55489 4.99567 3.01409 4.13649 3.79877L2.87285 2.53905C3.36188 1.86641 3.21302 0.924686 2.54038 0.435663 2.52591 0.42514 2.51125 0.414875 2.49641 0.404875 2.38812 0.332054 2.24131 0.360802 2.16849 0.469086 2.09567 0.57737 2.12441 0.724184 2.2327 0.797005 2.70694 1.11635 2.83251 1.75968 2.51316 2.23392 2.19382 2.70816 1.55049 2.83373 1.07625 2.51438 0.602005 2.19504 0.476437 1.55171 0.795782 1.07747 0.932447 0.874516 1.13658 0.72653 1.37197 0.65976 1.49524 0.616957 1.56046 0.482334 1.51766 0.359074 1.47835 0.245888 1.36055 0.180044 1.24355 0.205868 0.440744 0.424953-0.0324554 1.25336 0.186632 2.05617 0.405718 2.85897 1.23413 3.33217 2.03693 3.11308 2.21826 3.0636 2.38873 2.98062 2.53954 2.86844L3.8022 4.1311C3.01752 4.99028 2.55832 6.09701 2.50425 7.25933 2.49444 7.25247 2.48366 7.29756 2.50425 7.73087 2.55832 8.89319 3.01752 9.99992 3.8022 10.8591L2.53954 12.1267C1.86554 11.6367 0.921995 11.786 0.432076 12.46-0.0578442 13.134 0.0913849 14.0775 0.765387 14.5674 1.43939 15.0574 2.38293 14.9081 2.87285 14.2341 3.2573 13.7052 3.2573 12.9889 2.87285 12.46L4.13551 11.2012C4.99469 11.9859 6.10142 12.4451 7.26374 12.4992L7.73528 12.4992C8.89794 12.4453 10.0051 11.9861 10.8645 11.2012L12.1271 12.4639C11.6386 13.1369 11.7881 14.0785 12.4611 14.567 13.1341 15.0556 14.0758 14.906 14.5643 14.233 14.8498 13.8397 14.9279 13.3327 14.774 12.8717 14.7378 12.7463 14.6069 12.6741 14.4815 12.7103 14.3561 12.7465 14.2839 12.8774 14.3201 13.0028 14.3218 13.0089 14.3238 13.0148 14.326 13.0207 14.5071 13.5625 14.2147 14.1484 13.6729 14.3295 13.1312 14.5105 12.5452 14.2181 12.3642 13.6764 12.1831 13.1346 12.4755 12.5487 13.0173 12.3676 13.2471 12.2908 13.4965 12.2971 13.7221 12.3855 13.8459 12.4267 13.9797 12.3598 14.021 12.236 14.0592 12.1213 14.0047 11.9963 13.8947 11.9463 13.4159 11.7584 12.8743 11.8279 12.4585 12.1306L11.1958 10.8679C11.9805 10.0087 12.4396 8.90199 12.4938 7.73969ZM13.3457 0.619566C13.9174 0.619566 14.3809 1.08305 14.3809 1.65479 14.3809 2.22653 13.9174 2.69002 13.3457 2.69002 12.774 2.69002 12.3105 2.22653 12.3105 1.65479 12.3105 1.08289 12.7738 0.619127 13.3457 0.618586ZM7.5 2.96647C10.0019 2.96593 12.0305 4.99369 12.0311 7.49559 12.0316 9.99749 10.0039 12.0261 7.50196 12.0267 5.00082 12.0272 2.97251 10.0006 2.97088 7.49951 2.97196 4.99796 4.99845 2.96972 7.5 2.96647ZM1.6543 14.3804C1.08256 14.3804 0.619078 13.9169 0.619078 13.3452 0.619078 12.7735 1.08256 12.31 1.6543 12.31 2.22604 12.31 2.68953 12.7735 2.68953 13.3452 2.68899 13.9167 2.22582 14.3799 1.6543 14.3804Z" stroke="#454545" stroke-width="0.294098" fill="#454545"/><path d="M4.83156 10.4042 6.95004 10.4042C7.08026 10.3958 7.179 10.2835 7.17061 10.1532 7.16296 10.0347 7.06854 9.94034 6.95004 9.93268L6.40204 9.93269 6.40204 9.53369C6.39363 9.40347 6.28128 9.30473 6.15106 9.31313 6.03256 9.32077 5.93816 9.41519 5.9305 9.53369L5.93051 9.93269 5.06781 9.93269 5.06781 8.771C5.06836 8.19986 5.53093 7.73685 6.10205 7.73576L8.89795 7.73576C9.46909 7.73685 9.93166 8.19986 9.93219 8.771L9.93219 9.93269 9.06952 9.93269 9.06952 9.53369C9.06111 9.40347 8.94876 9.30473 8.81854 9.31313 8.70004 9.32077 8.60564 9.41519 8.59798 9.53369L8.59798 9.93269 8.04997 9.93269C7.91975 9.92429 7.80739 10.023 7.799 10.1533 7.79059 10.2835 7.88934 10.3958 8.01956 10.4042 8.02968 10.4049 8.03986 10.4049 8.04999 10.4042L10.1685 10.4042C10.299 10.4042 10.4047 10.2984 10.4047 10.168L10.4047 8.77002C10.4036 7.93831 9.72968 7.26433 8.89795 7.26326L8.72247 7.26326C9.47015 6.58783 9.52873 5.43417 8.85332 4.68649 8.17789 3.93883 7.02423 3.88025 6.27657 4.55566 5.52888 5.23108 5.47031 6.38474 6.14572 7.13242 6.18709 7.17822 6.23076 7.22188 6.27657 7.26326L6.10109 7.26326C5.26936 7.26433 4.5954 7.93831 4.59431 8.77002L4.59431 10.168C4.59431 10.2984 4.70009 10.4042 4.83057 10.4042 4.8309 10.4042 4.83122 10.4042 4.83156 10.4042ZM6.14716 5.91139C6.14716 5.16423 6.75284 4.55853 7.50002 4.55853 8.24716 4.55853 8.85287 5.16422 8.85287 5.91139 8.85287 6.65854 8.24718 7.26424 7.50002 7.26424 6.75308 7.2637 6.14769 6.65833 6.14716 5.91139Z" stroke="#454545" stroke-width="0.294098" fill="#454545"/></g></svg>