<svg width="15" height="15" xmlns="http://www.w3.org/2000/svg" xmlns:xlink="http://www.w3.org/1999/xlink" overflow="hidden"><defs><clipPath id="clip0"><rect x="0" y="0" width="15" height="15"/></clipPath></defs><g clip-path="url(#clip0)"><path d="M4.40549 1.81045 3.40855 0.813505C1.67683 2.12305 0.618222 4.13575 0.520404 6.30467L1.91612 6.30467C2.01759 4.50549 2.93411 2.85083 4.40549 1.81045ZM13.0789 6.30467 14.4746 6.30467C14.3728 4.13667 13.3168 2.12486 11.5905 0.809517L10.5935 1.80646C12.0602 2.85221 12.9738 4.50638 13.0779 6.30467ZM11.7001 6.65459C11.8458 4.61598 10.5248 2.76056 8.55078 2.23116L8.55078 1.75163C8.55078 1.17185 8.08078 0.701848 7.501 0.701848 6.92122 0.701848 6.45122 1.17185 6.45122 1.75163L6.45122 2.22717C4.4715 2.7515 3.14662 4.61229 3.29888 6.65459L3.29888 10.1549 1.90316 11.5506 1.90316 12.2484 13.0988 12.2484 13.0988 11.5506 11.7031 10.1549ZM7.5 14.354C7.59414 14.3555 7.68814 14.3461 7.78014 14.3261 8.22991 14.2303 8.60548 13.9227 8.78805 13.5006 8.85898 13.3273 8.89458 13.1415 8.89273 12.9543L6.09232 12.9543C6.09778 13.7278 6.7255 14.3524 7.499 14.354Z" stroke="#EEEEEE" stroke-width="0.996943" fill="none"/></g></svg>