<svg width="15" height="16" xmlns="http://www.w3.org/2000/svg" xmlns:xlink="http://www.w3.org/1999/xlink" overflow="hidden"><defs><clipPath id="clip0"><rect x="0" y="0" width="15" height="16"/></clipPath></defs><g clip-path="url(#clip0)"><path d="M14.918 0.515 14.853 0 14.288 0.1C13.701 0.2 11.297 0.763 11.194 0.787L10.794 0.881 10.794 1.425 4.204 1.425 4.204 0.931 3.804 0.839C3.703 0.815 1.298 0.253 0.712 0.152L0.148 0.052 0.0830002 0.568C-0.307128 2.41884 0.183422 4.34595 1.411 5.785 2.37728 6.74015 3.65529 7.31525 5.011 7.405 5.31327 7.76004 5.66643 8.06838 6.059 8.32L5.584 8.32 5.584 9.3 6.324 9.3 6.324 9.788 6.49 9.788C6.4321 11.1358 5.72373 12.3718 4.59 13.103L4.59 15.203 3.651 15.203 3.651 16 11.503 16 11.503 15.207 10.526 15.207 10.526 13.1 10.526 13.1C9.40507 12.3591 8.70568 11.1272 8.644 9.785L8.794 9.785 8.794 9.3 9.44 9.3 9.44 8.32 8.935 8.32C9.34751 8.05503 9.71654 7.72782 10.029 7.35 11.3703 7.25205 12.6327 6.67867 13.589 5.733 14.8164 4.29346 15.3072 2.3663 14.918 0.515ZM2.207 5.148C1.28618 4.05789 0.878238 2.62462 1.087 1.213 1.715 1.348 2.623 1.557 3.139 1.677L3.139 1.777 2.46 2.157 3.02 2.973 3.315 2.808C3.4091 4.02685 3.73421 5.21667 4.273 6.314 3.48931 6.125 2.77385 5.72121 2.207 5.148ZM12.793 5.095C12.2322 5.66323 11.5245 6.06448 10.749 6.254 11.2761 5.15593 11.5926 3.96874 11.682 2.754L11.982 2.92 12.542 2.103 11.862 1.723 11.862 1.623C12.379 1.504 13.287 1.296 13.915 1.159 14.1228 2.57089 13.7142 4.00403 12.793 5.094Z" fill="#77787B"/></g></svg>