<svg width="14" height="14" xmlns="http://www.w3.org/2000/svg" xmlns:xlink="http://www.w3.org/1999/xlink" overflow="hidden"><defs><clipPath id="clip0"><rect x="0" y="0" width="14" height="14"/></clipPath></defs><g clip-path="url(#clip0)"><path d="M6.456 4.356 6.456 4.356C6.5369 4.13006 6.58931 3.89491 6.612 3.656L6.612 3.5C6.69735 3.24769 6.69735 2.97431 6.612 2.722L6.612 2.644 6.534 2.566 6.534 2.566C6.53512 2.60796 6.50201 2.64288 6.46005 2.644 6.4587 2.64404 6.45735 2.64404 6.456 2.644 6.29886 3.20351 6.29886 3.79549 6.456 4.355ZM4.122 9.722C3.98251 9.78195 3.85168 9.86031 3.733 9.955 3.31196 10.294 2.96741 10.7183 2.722 11.2L2.722 11.2C3.189 11.122 3.655 10.656 4.122 9.722ZM11.278 8.555C11.2 8.477 10.889 8.244 9.8 8.244L9.644 8.244 9.644 8.322C10.1085 8.5415 10.6096 8.67338 11.122 8.711L11.355 8.711 11.355 8.633 11.355 8.633C11.313 8.63356 11.2786 8.59998 11.278 8.55801 11.278 8.55734 11.278 8.55667 11.278 8.556ZM12.444 0 1.556 0C0.697557 0.00219833 0.00219832 0.697557-5.72205e-09 1.556L0 12.444C0.00219833 13.3024 0.697557 13.9978 1.556 14L12.444 14C13.3024 13.9978 13.9978 13.3024 14 12.444L14 1.556C13.9978 0.697557 13.3024 0.00219832 12.444-5.72205e-09ZM11.588 9.178C11.37 9.2839 11.1303 9.33733 10.888 9.334 10.0802 9.32285 9.2844 9.13729 8.555 8.79 7.49623 8.86759 6.45121 9.07653 5.444 9.412 5.366 9.412 5.366 9.412 5.288 9.49 4.356 11.122 3.578 11.9 2.956 11.9 2.8 11.9 2.723 11.9 2.645 11.822L2.256 11.589 2.256 11.511C2.19303 11.3916 2.16594 11.2565 2.178 11.122 2.44528 10.4096 2.97374 9.82576 3.656 9.489 3.812 9.411 4.045 9.256 4.356 9.1 4.589 8.711 4.823 8.244 5.134 7.7 5.47416 6.96996 5.76026 6.21594 5.99 5.444L5.99 5.444C5.62464 4.6365 5.56912 3.7228 5.834 2.877 5.912 2.566 6.145 2.255 6.456 2.255L6.612 2.255C6.77742 2.27122 6.93705 2.32454 7.079 2.411 7.623 2.955 7.39 4.2 7.079 5.211L7.079 5.289C7.34458 6.04384 7.76837 6.73323 8.322 7.311 8.54297 7.48445 8.777 7.64058 9.022 7.778 9.411 7.778 9.722 7.7 10.033 7.7 10.966 7.7 11.589 7.856 11.822 8.244 11.8855 8.39102 11.9123 8.55131 11.9 8.711 11.8056 8.87264 11.7018 9.02858 11.589 9.178ZM6.533 6.144C6.31281 6.78193 6.05297 7.40548 5.755 8.011 5.599 8.322 5.444 8.555 5.288 8.867L5.444 8.867C6.27045 8.53736 7.13162 8.30252 8.011 8.167 7.89394 8.10861 7.78854 8.02931 7.7 7.933 7.23187 7.39219 6.83929 6.79037 6.533 6.144Z" fill="#FF4860"/></g></svg>