<svg width="12" height="15" xmlns="http://www.w3.org/2000/svg" xmlns:xlink="http://www.w3.org/1999/xlink" overflow="hidden"><defs><clipPath id="clip0"><rect x="0" y="0" width="12" height="15"/></clipPath></defs><g clip-path="url(#clip0)"><path d="M11.3167 15 0.683105 15C0.313477 15.0078 0.00708008 14.7142-0.000732422 14.3444-0.000732422 14.3442-0.000732422 14.3442-0.000732422 14.3441L-0.000488281 0.656982C0.0065918 0.287048 0.312256-0.00708008 0.681885-6.10352e-05 0.682373-6.10352e-05 0.682617-6.10352e-05 0.683105-6.10352e-05L7.31592 0C7.68604-0.00720215 7.99194 0.286804 7.99976 0.656982L7.99976 3.80573 11.3167 3.80573C11.6863 3.79846 11.9922 4.09253 11.9995 4.46246 11.9995 4.46252 11.9995 4.46265 11.9995 4.46271L11.9995 14.3451C11.9912 14.7143 11.6858 15.0073 11.3167 15.0001ZM7.24292 11.7213 7.95972 11.7213C8.51562 11.7213 9.07275 11.7213 9.62769 11.7213 9.85498 11.7391 10.054 11.5693 10.0718 11.3419 10.0769 11.2761 10.0664 11.21 10.0408 11.1492 9.9541 10.9715 9.76392 10.8686 9.56787 10.8933 8.01855 10.8933 6.46973 10.8933 4.9209 10.8933 4.87549 10.8923 4.83008 10.8943 4.78491 10.8993 4.56665 10.9229 4.4043 11.1119 4.41382 11.3312 4.4314 11.5642 4.63428 11.7388 4.86743 11.7214 4.86792 11.7213 4.86841 11.7213 4.8689 11.7213ZM7.24292 7.9035C6.45166 7.9035 5.66064 7.9035 4.86987 7.9035 4.63989 7.8833 4.43701 8.05334 4.41699 8.28326 4.41528 8.30261 4.41504 8.32202 4.41602 8.34143 4.43237 8.56146 4.61743 8.73071 4.83813 8.72742 5.01489 8.73541 5.19189 8.72742 5.3689 8.72742 6.75684 8.72742 8.14502 8.72742 9.53369 8.72742 9.63574 8.73004 9.7373 8.71411 9.83374 8.68042 10.0122 8.60815 10.1113 8.41687 10.0676 8.22949 10.019 8.02814 9.8335 7.89044 9.62671 7.90247 8.83203 7.90247 8.03711 7.90283 7.24194 7.9035ZM7.24292 5.73663 9.08374 5.73663C9.27881 5.73663 9.47168 5.74359 9.66577 5.73663 9.89111 5.73688 10.074 5.55438 10.0742 5.3291 10.0742 5.27252 10.0625 5.21649 10.0398 5.16467 9.95459 4.99078 9.76904 4.8894 9.5769 4.91168 8.01953 4.91168 6.4624 4.91168 4.90503 4.91168 4.85986 4.91095 4.8147 4.91394 4.77002 4.92065 4.55615 4.94672 4.3999 5.1347 4.41309 5.34967 4.43213 5.58411 4.6377 5.75873 4.87231 5.73962 4.87598 5.73932 4.87964 5.73901 4.88306 5.73859 5.6709 5.73926 6.45825 5.73895 7.24487 5.73761ZM2.73413 5.1037C2.63086 4.98029 2.52124 4.86212 2.40625 4.74969 2.23682 4.60504 1.98486 4.61414 1.82617 4.77069 1.66699 4.91498 1.65503 5.16095 1.79932 5.32013 1.802 5.323 1.80469 5.32587 1.80737 5.32867 2.01318 5.53864 2.22729 5.74261 2.44629 5.93964 2.59375 6.07721 2.8186 6.08942 2.98022 5.96863 3.49561 5.58197 4.00781 5.19067 4.51709 4.79468 4.66382 4.67871 4.70605 4.47424 4.61719 4.30975 4.50415 4.09528 4.23853 4.01306 4.02441 4.12616 3.99707 4.14062 3.97119 4.1579 3.94751 4.1778 3.55811 4.47375 3.16724 4.7757 2.73633 5.1037ZM2.77222 11.0363C2.76318 11.0333 2.75464 11.0297 2.74634 11.0253 2.65283 10.9256 2.55249 10.8324 2.44629 10.7463 2.35742 10.6805 2.25488 10.6357 2.14624 10.6154 1.9751 10.6014 1.81396 10.6984 1.74634 10.8564 1.6687 11.0125 1.70605 11.2015 1.8374 11.3163 2.02026 11.4982 2.20923 11.6743 2.39722 11.8522 2.55664 12.0414 2.83936 12.0654 3.02856 11.906 3.03418 11.9012 3.03979 11.8963 3.04517 11.8912 3.23413 11.7502 3.41919 11.6063 3.6062 11.4633 3.89624 11.2413 4.18701 11.0212 4.47607 10.7983 4.66675 10.6866 4.73047 10.4415 4.61865 10.2509 4.59204 10.2056 4.55688 10.166 4.51489 10.1343 4.34839 10.0015 4.11084 10.0056 3.94922 10.1443 3.55518 10.4403 3.16357 10.738 2.77417 11.0372ZM2.75122 8.07147C2.64111 7.9585 2.54517 7.84949 2.43823 7.7525 2.26562 7.58337 1.98853 7.58606 1.81934 7.75848 1.66333 7.90936 1.65918 8.15814 1.80981 8.31415 1.81934 8.3241 1.82959 8.33356 1.84033 8.34247 2.04028 8.53442 2.24023 8.72345 2.44019 8.91046 2.58594 9.04724 2.80688 9.06549 2.97314 8.95447 3.04517 8.90845 3.11133 8.85443 3.1792 8.80243 3.62378 8.4624 4.06812 8.12219 4.51196 7.78149 4.63745 7.69031 4.69531 7.5321 4.65796 7.38147 4.62769 7.23584 4.51782 7.11969 4.37402 7.08154 4.21753 7.03473 4.0481 7.07257 3.92627 7.18152 3.54224 7.4715 3.15723 7.76349 2.7522 8.07251Z" fill="#77787B"/></g></svg>