<svg width="18" height="17" xmlns="http://www.w3.org/2000/svg" xmlns:xlink="http://www.w3.org/1999/xlink" overflow="hidden"><defs><clipPath id="clip0"><rect x="0" y="0" width="18" height="17"/></clipPath></defs><g clip-path="url(#clip0)"><path d="M2.42223 0C1.30428 0 0.398004 0.906278 0.398004 2.02423 0.398004 3.14218 1.30428 4.04846 2.42223 4.04846 3.54019 4.04846 4.44646 3.14218 4.44646 2.02423 4.44538 0.906727 3.53974 0.00108123 2.42223 0Z" fill="#FFFFFF"/><path d="M8.97352 0C7.85557 0.00162482 6.95061 0.90922 6.95223 2.02717 6.95386 3.14512 7.86146 4.05008 8.97941 4.04846 10.0962 4.04683 11.0007 3.14103 11.0007 2.02423 10.9996 0.905578 10.0922-0.000542164 8.97352 0Z" fill="#FFFFFF"/><path d="M15.6307 4.04944C16.7487 4.04944 17.655 3.14316 17.655 2.02521 17.655 0.907259 16.7487 0.000980616 15.6307 0.000980616 14.5128 0.000980616 13.6065 0.907259 13.6065 2.02521 13.6076 3.14271 14.5132 4.04836 15.6307 4.04944Z" fill="#FFFFFF"/><path d="M2.36927 10.534C3.48723 10.534 4.3935 9.62775 4.3935 8.5098 4.3935 7.39185 3.48723 6.48557 2.36927 6.48557 1.25132 6.48557 0.345044 7.39185 0.345044 8.5098 0.346126 9.62731 1.25177 10.533 2.36927 10.534Z" fill="#FFFFFF"/><path d="M8.92056 10.534C10.0385 10.534 10.9448 9.62775 10.9448 8.5098 10.9448 7.39185 10.0385 6.48557 8.92056 6.48557 7.8026 6.48557 6.89632 7.39185 6.89632 8.5098 6.89741 9.62731 7.80305 10.533 8.92056 10.534Z" fill="#FFFFFF"/><path d="M15.5817 10.534C16.6996 10.5335 17.6055 9.62678 17.6049 8.50883 17.6044 7.39088 16.6977 6.48504 15.5797 6.48557 14.4622 6.48611 13.5565 7.39223 13.5565 8.5098 13.5575 9.62769 14.4638 10.5335 15.5817 10.534Z" fill="#FFFFFF"/><path d="M2.41243 12.9515C1.29448 12.9515 0.388197 13.8578 0.388197 14.9758 0.388197 16.0937 1.29448 17 2.41243 17 3.53038 17 4.43666 16.0937 4.43666 14.9758 4.43557 13.8583 3.52993 12.9526 2.41243 12.9515Z" fill="#FFFFFF"/><path d="M8.96665 12.9515C7.8487 12.9515 6.94242 13.8578 6.94242 14.9758 6.94242 16.0937 7.8487 17 8.96665 17 10.0846 17 10.9909 16.0937 10.9909 14.9758 10.9898 13.8583 10.0842 12.9526 8.96665 12.9515Z" fill="#FFFFFF"/><path d="M15.6239 12.9515C14.5059 12.9515 13.5996 13.8578 13.5996 14.9758 13.5996 16.0937 14.5059 17 15.6239 17 16.7418 17 17.6481 16.0937 17.6481 14.9758 17.647 13.8583 16.7414 12.9526 15.6239 12.9515Z" fill="#FFFFFF"/></g></svg>