<svg width="15" height="15" xmlns="http://www.w3.org/2000/svg" xmlns:xlink="http://www.w3.org/1999/xlink" overflow="hidden"><defs><clipPath id="clip0"><rect x="0" y="0" width="15" height="15"/></clipPath></defs><g clip-path="url(#clip0)"><path d="M12.801 2.2C9.77057-0.623786 5.02479-0.456266 2.201 2.57417-0.482889 5.45446-0.482889 9.9197 2.201 12.8 5.23143 15.6238 9.97721 15.4563 12.801 12.4258 15.4849 9.54554 15.4849 5.0803 12.801 2.2ZM3.76 12.961C4.13147 10.8955 6.10706 9.52214 8.17261 9.89361 9.73557 10.1747 10.9589 11.398 11.24 12.961 8.98671 14.5083 6.01329 14.5083 3.76 12.961ZM5.115 6.561C5.11334 5.2438 6.1798 4.17466 7.497 4.173 8.8142 4.17135 9.88334 5.2378 9.885 6.555 9.88665 7.8722 8.8202 8.94134 7.503 8.943 7.50233 8.943 7.50167 8.943 7.501 8.943 6.18465 8.9419 5.11765 7.87535 5.116 6.559ZM12.001 12.351C11.6105 10.9685 10.6071 9.84166 9.279 9.294 10.7905 8.31176 11.2196 6.29015 10.2374 4.7786 9.25516 3.26705 7.23355 2.83796 5.722 3.8202 4.21045 4.80243 3.78136 6.82405 4.7636 8.3356 5.01249 8.71861 5.33899 9.04511 5.722 9.294 4.39417 9.84178 3.39118 10.9686 3.001 12.351 0.318713 9.86572 0.159008 5.67658 2.64429 2.99429 5.12957 0.312002 9.31871 0.152297 12.001 2.63758 14.6833 5.12286 14.843 9.312 12.3577 11.9943 12.2434 12.1177 12.1244 12.2367 12.001 12.351Z" fill="#454545"/></g></svg>