<svg width="34" height="39" xmlns="http://www.w3.org/2000/svg" xmlns:xlink="http://www.w3.org/1999/xlink" overflow="hidden"><defs><clipPath id="clip0"><rect x="0" y="0" width="34" height="39"/></clipPath></defs><g clip-path="url(#clip0)"><path d="M11.682 11.655C11.682 12.9015 10.6715 13.912 9.425 13.912 8.17849 13.912 7.168 12.9015 7.168 11.655 7.168 10.4085 8.17849 9.398 9.425 9.398 10.6715 9.398 11.682 10.4085 11.682 11.655Z" fill="#FAA68E"/><path d="M26.833 11.655C26.833 12.9015 25.8225 13.912 24.576 13.912 23.3295 13.912 22.319 12.9015 22.319 11.655 22.319 10.4085 23.3295 9.398 24.576 9.398 25.8225 9.398 26.833 10.4085 26.833 11.655Z" fill="#EA9582"/><path d="M0 31.036C7.82228 40.4249 21.7746 41.6948 31.1635 33.8725 32.1929 33.0149 33.1423 32.0655 34 31.036L34 30.109C34.0096 27.5161 32.1797 25.2803 29.636 24.777L22.557 23.403 11.443 23.403 4.364 24.777C1.82035 25.2803-0.00955963 27.5161 3.8147e-06 30.109Z" fill="#FFFFFF"/><path d="M29.591 24.776 22.439 23.402 16.839 23.402 16.839 39.002C23.4541 39.006 29.7342 36.0924 34.003 31.039L34.003 30.112C34.0045 27.5046 32.1522 25.2644 29.591 24.776Z" fill="#E9EDF5"/><path d="M18.856 30.089C18.8541 28.7508 19.9374 27.6645 21.2756 27.6626 22.2689 27.6612 23.1624 28.2662 23.53 29.189 24.0252 27.9458 25.4344 27.3394 26.6776 27.8346 27.6004 28.2021 28.2054 29.0957 28.204 30.089 28.204 33.403 23.53 35.63 23.53 35.63 23.53 35.63 18.856 33.242 18.856 30.089Z" fill="#FF646F"/><path d="M22.615 23.52C21.7544 23.2907 21.1561 22.5106 21.158 21.62L21.158 16.4C21.11 16.356 21.0613 16.313 21.012 16.271L12.989 16.271C12.9397 16.313 12.891 16.356 12.843 16.4L12.843 21.62C12.8449 22.5106 12.2466 23.2908 11.386 23.52 12.8004 26.6208 16.4607 27.9879 19.5615 26.5735 20.9138 25.9566 21.9981 24.8724 22.615 23.52Z" fill="#FAA68E"/><path d="M22.581 23.52C21.7204 23.2907 21.1221 22.5106 21.124 21.62L21.124 16.4C21.076 16.356 21.0276 16.313 20.979 16.271L16.979 16.271 16.979 27.125C19.3904 27.1215 21.5788 25.7133 22.581 23.52Z" fill="#EA9582"/><path d="M17.001 21.341C12.5827 21.341 9.00101 17.7593 9.00101 13.341L9.00101 7.997C9.13168 3.58066 12.8178 0.106438 17.2341 0.237122 21.4668 0.362366 24.8688 3.76431 24.994 7.997L24.994 13.345C24.9918 17.759 21.415 21.3371 17.001 21.341Z" fill="#FFBEAA"/><path d="M16.958 0 16.958 21.341C21.3708 21.3333 24.944 17.7538 24.944 13.341L24.944 7.996C24.9418 3.58475 21.3692 0.00772095 16.958 0Z" fill="#FAA68E"/></g></svg>