<svg width="154" height="103" xmlns="http://www.w3.org/2000/svg" xmlns:xlink="http://www.w3.org/1999/xlink" overflow="hidden"><defs><clipPath id="clip0"><rect x="0" y="0" width="154" height="103"/></clipPath></defs><g clip-path="url(#clip0)"><text fill="#707070" font-family="Roboto,Roboto_MSFontService,sans-serif" font-weight="400" font-size="14" transform="translate(0.55 99)">Tell us a little about you!</text><path d="M102 0C110.284-3.55271e-15 117 6.71573 117 15L117 55C117 63.2843 110.284 70 102 70L52 70C43.7157 70 37 63.2843 37 55L37 15C37 6.71573 43.7157 0 52-1.77636e-15Z"/><path d="M80.764 24 61.236 24C59.5541 23.9036 58.1093 25.1819 58 26.863L58 44.137C58.1093 45.8181 59.5541 47.0964 61.236 47L80.764 47C82.4459 47.0964 83.8907 45.8181 84 44.137L84 26.863C83.8907 25.1819 82.4459 23.9036 80.764 24ZM93.588 26.258 86.167 30.786 86.167 40.214 93.588 44.736C95.023 45.61 97 44.718 97 43.191L97 27.8C97 26.282 95.03 25.384 93.588 26.258Z" fill="#FFFFFF"/></g></svg>