<svg width="24" height="16" xmlns="http://www.w3.org/2000/svg" xmlns:xlink="http://www.w3.org/1999/xlink" overflow="hidden"><defs><clipPath id="clip0"><rect x="0" y="0" width="24" height="16"/></clipPath></defs><g clip-path="url(#clip0)"><path d="M21.854 2.83C18.684-2.412 13.909 1.23 13.909 1.23 13.5338 1.48775 13.0946 1.63658 12.64 1.66L11.361 1.66C10.9067 1.63758 10.4676 1.48903 10.093 1.231 10.093 1.231 5.317-2.411 2.146 2.831 0.250253 6.14491-0.419495 10.02 0.254 13.778 0.478 15.178 1.215 16.108 2.607 15.991 3.999 15.874 7.007 12.228 7.007 12.228 7.30762 11.9033 7.72227 11.7076 8.164 11.682L15.832 11.682C16.2738 11.7074 16.6885 11.9031 16.989 12.228 16.989 12.228 20.002 15.874 21.389 15.991 22.776 16.108 23.518 15.175 23.741 13.778 24.4167 10.0203 23.7487 6.14467 21.854 2.83ZM9.118 7.096 7.474 7.096 7.474 8.696C7.21139 8.86946 6.90158 8.95748 6.587 8.948 6.29786 8.96051 6.01602 8.85513 5.806 8.656L5.806 7.097 4.252 7.097C4.09645 6.88611 4.01047 6.63201 4.006 6.37 3.98127 6.03846 4.05577 5.70706 4.22 5.418L5.866 5.418 5.866 3.763C6.12358 3.64176 6.40652 3.58414 6.691 3.595 6.98295 3.60402 7.27005 3.67206 7.535 3.795L7.527 5.418 9.08 5.418C9.24584 5.64486 9.34741 5.91225 9.374 6.192 9.36306 6.50961 9.27521 6.81982 9.118 7.096ZM16.66 8.914C15.9365 8.91952 15.3456 8.33751 15.34 7.61404 15.3345 6.89057 15.9165 6.2996 16.64 6.29408 17.3635 6.28855 17.9544 6.87057 17.96 7.59404 17.96 7.59736 17.96 7.60068 17.96 7.604 17.9655 8.32195 17.388 8.90844 16.67 8.91396 16.6667 8.91399 16.6633 8.914 16.66 8.914ZM16.66 5.314C15.9365 5.31952 15.3456 4.73751 15.34 4.01404 15.3345 3.29057 15.9165 2.6996 16.64 2.69408 17.3635 2.68855 17.9544 3.27057 17.96 3.99404 17.96 3.99769 17.96 4.00135 17.96 4.005 17.9628 4.72297 17.383 5.30723 16.665 5.30999 16.6633 5.31 16.6617 5.31 16.66 5.31ZM19.9 7.248C19.1765 7.25352 18.5856 6.67151 18.58 5.94804 18.5745 5.22457 19.1565 4.6336 19.88 4.62808 20.6035 4.62255 21.1944 5.20457 21.2 5.92804 21.2 5.93136 21.2 5.93468 21.2 5.938 21.2055 6.65595 20.628 7.24244 19.91 7.24796 19.9067 7.24799 19.9033 7.248 19.9 7.248Z" fill="#454545"/></g></svg>