<svg width="15" height="15" xmlns="http://www.w3.org/2000/svg" xmlns:xlink="http://www.w3.org/1999/xlink" overflow="hidden"><defs><clipPath id="clip0"><rect x="0" y="0" width="15" height="15"/></clipPath></defs><g clip-path="url(#clip0)"><path d="M10.0441 8.61765 8.1304 7.18236 8.1304 4.25882C8.1304 3.96535 7.8925 3.72745 7.59903 3.72745 7.30556 3.72745 7.06764 3.96535 7.06764 4.25882L7.06766 7.44804C7.06743 7.6155 7.1463 7.77324 7.2804 7.87353L9.40686 9.46863C9.64185 9.64487 9.97522 9.59725 10.1515 9.36226 10.3277 9.12727 10.2801 8.79389 10.0451 8.61765Z" stroke="#FFFFFF" stroke-width="0.294118" fill="#454545"/><path d="M7.5 0.147059C3.43908 0.147059 0.147059 3.43908 0.147059 7.5 0.147059 11.5609 3.43908 14.8529 7.5 14.8529 11.5609 14.8529 14.8529 11.5609 14.8529 7.5 14.8486 3.44087 11.5591 0.151382 7.5 0.147059ZM7.5 13.7137C4.06825 13.7137 1.28627 10.9317 1.28627 7.5 1.28627 4.06825 4.06825 1.28627 7.5 1.28627 10.9317 1.28627 13.7137 4.06825 13.7137 7.5 13.7094 10.93 10.93 13.7094 7.5 13.7137Z" stroke="#FFFFFF" stroke-width="0.294118" fill="#454545"/></g></svg>